<svg viewBox="0 0 143 145" xmlns="http://www.w3.org/2000/svg" xml:space="preserve" style="fill-rule:evenodd;clip-rule:evenodd;stroke-linecap:round;stroke-linejoin:round;stroke-miterlimit:1.5"><path style="fill-opacity:0" d="M0 0h142.208v142.208H0z"/><path d="M96.892 134.747v-6.529l11.788-2.249V59.197H65.833v66.772l11.392 2.249v6.529H51.158v7.461h72.198v-7.461H96.892z" style="fill:none;stroke:#0b3c5d;stroke-width:4px"/><path d="M79.367 59.197v-6.529H65.833V41.833l-2.803-6.539h10.633l2.436 2.924h21.776l2.086-2.924h11.159l-2.44 6.539v10.835H94.924v6.529" style="fill:none;stroke:#0b3c5d;stroke-width:4px;stroke-linecap:butt"/><path d="M78.654 37.576v-8.067h16.308v8.067" style="fill:none;stroke:#0b3c5d;stroke-width:4px;stroke-linecap:butt"/><g><path d="M71.369 45.28h4.107M78.286 45.28h4.107M85.203 45.28h4.107M92.12 45.28h4.107M99.037 45.28h4.108M71.369 66.452h31.776M71.369 74.071h31.776M71.369 81.655h31.776M71.369 89.24h31.776M71.369 96.824h31.776M71.369 104.408h31.776M71.369 111.992h31.776M71.369 119.576h31.776" style="fill:none;stroke:#0b3c5d;stroke-width:4px;stroke-linecap:butt"/></g><g><path d="M49.736 46.531c-6.887 0-12.479-5.591-12.479-12.479 0-6.888 5.592-12.479 12.479-12.479 6.888 0 9.987 3.94 11.348 6.216" style="fill:none;stroke:#0b3c5d;stroke-width:3.76px"/><path d="M49.736 2.898v10.111M65.313 7.072l-5.055 8.756M76.717 18.475 67.96 23.53M49.736 65.206V55.095M34.159 61.032l5.056-8.756M22.756 49.629l8.756-5.055M18.852 34.052h10.111M22.99 18.61l8.756 5.056M34.294 7.306l5.056 8.756" style="fill:none;stroke:#0b3c5d;stroke-width:4.14px"/></g></svg>