<?xml version="1.0" encoding="UTF-8" standalone="no"?><!DOCTYPE svg PUBLIC "-//W3C//DTD SVG 1.1//EN" "http://www.w3.org/Graphics/SVG/1.1/DTD/svg11.dtd"><svg width="100%" height="100%" viewBox="0 0 143 145" version="1.1" xmlns="http://www.w3.org/2000/svg" xmlns:xlink="http://www.w3.org/1999/xlink" xml:space="preserve" xmlns:serif="http://www.serif.com/" style="fill-rule:evenodd;clip-rule:evenodd;stroke-linecap:round;stroke-linejoin:round;stroke-miterlimit:1.5;"><rect x="-0" y="0" width="142.208" height="142.208" style="fill-opacity:0;"/><g id="concrete"><path d="M96.892,134.747l0,-6.529l11.788,-2.249l0,-66.772l-42.847,-0l0,66.772l11.392,2.249l0,6.529l-26.067,-0l-0,7.461l72.198,0l-0,-7.461l-26.464,-0Z" style="fill:none;stroke:#0b3c5d;stroke-width:4px;"/><path d="M79.367,59.197l-0,-6.529l-13.534,0l0,-10.835l-2.803,-6.539l10.633,-0l2.436,2.924l21.776,-0l2.086,-2.924l11.159,-0l-2.44,6.539l0,10.835l-13.756,0l-0,6.529" style="fill:none;stroke:#0b3c5d;stroke-width:4px;stroke-linecap:butt;"/><path d="M78.654,37.576l-0,-8.067l16.308,-0l-0,8.067" style="fill:none;stroke:#0b3c5d;stroke-width:4px;stroke-linecap:butt;"/></g><g id="windows"><path d="M71.369,45.28l4.107,-0" style="fill:none;stroke:#0b3c5d;stroke-width:4px;stroke-linecap:butt;"/><path d="M78.286,45.28l4.107,-0" style="fill:none;stroke:#0b3c5d;stroke-width:4px;stroke-linecap:butt;"/><path d="M85.203,45.28l4.107,-0" style="fill:none;stroke:#0b3c5d;stroke-width:4px;stroke-linecap:butt;"/><path d="M92.12,45.28l4.107,-0" style="fill:none;stroke:#0b3c5d;stroke-width:4px;stroke-linecap:butt;"/><path d="M99.037,45.28l4.108,-0" style="fill:none;stroke:#0b3c5d;stroke-width:4px;stroke-linecap:butt;"/><path d="M71.369,66.452l31.776,0" style="fill:none;stroke:#0b3c5d;stroke-width:4px;stroke-linecap:butt;"/><path d="M71.369,74.071l31.776,0" style="fill:none;stroke:#0b3c5d;stroke-width:4px;stroke-linecap:butt;"/><path d="M71.369,81.655l31.776,0" style="fill:none;stroke:#0b3c5d;stroke-width:4px;stroke-linecap:butt;"/><path d="M71.369,89.24l31.776,-0" style="fill:none;stroke:#0b3c5d;stroke-width:4px;stroke-linecap:butt;"/><path d="M71.369,96.824l31.776,-0" style="fill:none;stroke:#0b3c5d;stroke-width:4px;stroke-linecap:butt;"/><path d="M71.369,104.408l31.776,-0" style="fill:none;stroke:#0b3c5d;stroke-width:4px;stroke-linecap:butt;"/><path d="M71.369,111.992l31.776,-0" style="fill:none;stroke:#0b3c5d;stroke-width:4px;stroke-linecap:butt;"/><path d="M71.369,119.576l31.776,-0" style="fill:none;stroke:#0b3c5d;stroke-width:4px;stroke-linecap:butt;"/></g><g id="day"><path d="M49.736,46.531c-6.887,0 -12.479,-5.591 -12.479,-12.479c-0,-6.888 5.592,-12.479 12.479,-12.479c6.888,-0 9.987,3.94 11.348,6.216" style="fill:none;stroke:#0b3c5d;stroke-width:3.76px;"/><path d="M49.736,2.898l0,10.111" style="fill:none;stroke:#0b3c5d;stroke-width:4.14px;"/><path d="M65.313,7.072l-5.055,8.756" style="fill:none;stroke:#0b3c5d;stroke-width:4.14px;"/><path d="M76.717,18.475l-8.757,5.055" style="fill:none;stroke:#0b3c5d;stroke-width:4.14px;"/><path d="M49.736,65.206l0,-10.111" style="fill:none;stroke:#0b3c5d;stroke-width:4.14px;"/><path d="M34.159,61.032l5.056,-8.756" style="fill:none;stroke:#0b3c5d;stroke-width:4.14px;"/><path d="M22.756,49.629l8.756,-5.055" style="fill:none;stroke:#0b3c5d;stroke-width:4.14px;"/><path d="M18.852,34.052l10.111,0" style="fill:none;stroke:#0b3c5d;stroke-width:4.14px;"/><path d="M22.99,18.61l8.756,5.056" style="fill:none;stroke:#0b3c5d;stroke-width:4.14px;"/><path d="M34.294,7.306l5.056,8.756" style="fill:none;stroke:#0b3c5d;stroke-width:4.14px;"/></g></svg>