<svg viewBox="0 0 143 145" xmlns="http://www.w3.org/2000/svg" xml:space="preserve" style="fill-rule:evenodd;clip-rule:evenodd;stroke-linecap:round;stroke-linejoin:round;stroke-miterlimit:1.5"><path style="fill-opacity:0" d="M0 0h142.208v142.208H0z"/><path d="M96.892 134.747v-6.529l11.788-2.249V59.197H65.833v66.772l11.392 2.249v6.529H51.158v7.461h72.198v-7.461H96.892z" style="fill:none;stroke:#f2f2f2;stroke-width:4px"/><path d="M79.367 59.197v-6.529H65.833V41.833l-2.803-6.539h10.633l2.436 2.924h21.776l2.086-2.924h11.159l-2.44 6.539v10.835H94.924v6.529" style="fill:none;stroke:#f2f2f2;stroke-width:4px;stroke-linecap:butt"/><path d="M78.654 37.576v-8.067h16.308v8.067" style="fill:none;stroke:#f2f2f2;stroke-width:4px;stroke-linecap:butt"/><g><path d="M71.369 45.28h4.107M78.286 45.28h4.107M85.203 45.28h4.107M92.12 45.28h4.107M99.037 45.28h4.108M71.369 66.452h31.776M71.369 74.071h31.776M71.369 81.655h31.776M71.369 89.24h31.776M71.369 96.824h31.776M71.369 104.408h31.776M71.369 111.992h31.776M71.369 119.576h31.776" style="fill:none;stroke:#f2f2f2;stroke-width:4px;stroke-linecap:butt"/></g><g><path d="M60.713 43.517a14.09 14.09 0 0 1-10.481 4.66c-7.796 0-11.305-4.459-12.845-7.036 12.311 0 18.408-11.308 12.845-21.214 6.541 0 12.05 4.456 13.653 10.496h-1.016a4.93 4.93 0 0 0-4.466 7.021l2.31 4.937v1.136zM19.457 6.411l3.032 8.192 8.192 3.031-8.192 3.031-3.032 8.192-3.031-8.192-8.192-3.031 8.192-3.031 3.031-8.192zM29.322 56.886l2.297 6.207 6.207 2.297-6.207 2.297-2.297 6.207-2.297-6.207-6.207-2.297 6.207-2.297 2.297-6.207zM103.966 6.411l2.297 6.207 6.207 2.297-6.207 2.296-2.297 6.208-2.297-6.208-6.207-2.296 6.207-2.297 2.297-6.207z" style="fill:#f2f2f2"/></g></svg>