<?xml version="1.0" encoding="UTF-8" standalone="no"?><!DOCTYPE svg PUBLIC "-//W3C//DTD SVG 1.1//EN" "http://www.w3.org/Graphics/SVG/1.1/DTD/svg11.dtd"><svg width="100%" height="100%" viewBox="0 0 143 145" version="1.1" xmlns="http://www.w3.org/2000/svg" xmlns:xlink="http://www.w3.org/1999/xlink" xml:space="preserve" xmlns:serif="http://www.serif.com/" style="fill-rule:evenodd;clip-rule:evenodd;stroke-linecap:round;stroke-linejoin:round;stroke-miterlimit:1.5;"><rect x="-0" y="0" width="142.208" height="142.208" style="fill-opacity:0;"/><g id="concrete"><path d="M96.892,134.747l0,-6.529l11.788,-2.249l0,-66.772l-42.847,-0l0,66.772l11.392,2.249l0,6.529l-26.067,-0l-0,7.461l72.198,0l-0,-7.461l-26.464,-0Z" style="fill:none;stroke:#f2f2f2;stroke-width:4px;"/><path d="M79.367,59.197l-0,-6.529l-13.534,0l0,-10.835l-2.803,-6.539l10.633,-0l2.436,2.924l21.776,-0l2.086,-2.924l11.159,-0l-2.44,6.539l0,10.835l-13.756,0l-0,6.529" style="fill:none;stroke:#f2f2f2;stroke-width:4px;stroke-linecap:butt;"/><path d="M78.654,37.576l-0,-8.067l16.308,-0l-0,8.067" style="fill:none;stroke:#f2f2f2;stroke-width:4px;stroke-linecap:butt;"/></g><g id="windows"><path d="M71.369,45.28l4.107,-0" style="fill:none;stroke:#f2f2f2;stroke-width:4px;stroke-linecap:butt;"/><path d="M78.286,45.28l4.107,-0" style="fill:none;stroke:#f2f2f2;stroke-width:4px;stroke-linecap:butt;"/><path d="M85.203,45.28l4.107,-0" style="fill:none;stroke:#f2f2f2;stroke-width:4px;stroke-linecap:butt;"/><path d="M92.12,45.28l4.107,-0" style="fill:none;stroke:#f2f2f2;stroke-width:4px;stroke-linecap:butt;"/><path d="M99.037,45.28l4.108,-0" style="fill:none;stroke:#f2f2f2;stroke-width:4px;stroke-linecap:butt;"/><path d="M71.369,66.452l31.776,0" style="fill:none;stroke:#f2f2f2;stroke-width:4px;stroke-linecap:butt;"/><path d="M71.369,74.071l31.776,0" style="fill:none;stroke:#f2f2f2;stroke-width:4px;stroke-linecap:butt;"/><path d="M71.369,81.655l31.776,0" style="fill:none;stroke:#f2f2f2;stroke-width:4px;stroke-linecap:butt;"/><path d="M71.369,89.24l31.776,-0" style="fill:none;stroke:#f2f2f2;stroke-width:4px;stroke-linecap:butt;"/><path d="M71.369,96.824l31.776,-0" style="fill:none;stroke:#f2f2f2;stroke-width:4px;stroke-linecap:butt;"/><path d="M71.369,104.408l31.776,-0" style="fill:none;stroke:#f2f2f2;stroke-width:4px;stroke-linecap:butt;"/><path d="M71.369,111.992l31.776,-0" style="fill:none;stroke:#f2f2f2;stroke-width:4px;stroke-linecap:butt;"/><path d="M71.369,119.576l31.776,-0" style="fill:none;stroke:#f2f2f2;stroke-width:4px;stroke-linecap:butt;"/></g><g id="night"><path d="M60.713,43.517c-2.585,2.861 -6.325,4.66 -10.481,4.66c-7.796,0 -11.305,-4.459 -12.845,-7.036c12.311,0 18.408,-11.308 12.845,-21.214c6.541,-0 12.05,4.456 13.653,10.496l-1.016,-0c-1.687,-0 -3.256,0.861 -4.161,2.284c-0.905,1.423 -1.02,3.21 -0.305,4.737l2.31,4.937l0,1.136Z" style="fill:#f2f2f2;"/><path d="M19.457,6.411l3.032,8.192l8.192,3.031l-8.192,3.031l-3.032,8.192l-3.031,-8.192l-8.192,-3.031l8.192,-3.031l3.031,-8.192Z" style="fill:#f2f2f2;"/><path d="M29.322,56.886l2.297,6.207l6.207,2.297l-6.207,2.297l-2.297,6.207l-2.297,-6.207l-6.207,-2.297l6.207,-2.297l2.297,-6.207Z" style="fill:#f2f2f2;"/><path d="M103.966,6.411l2.297,6.207l6.207,2.297l-6.207,2.296l-2.297,6.208l-2.297,-6.208l-6.207,-2.296l6.207,-2.297l2.297,-6.207Z" style="fill:#f2f2f2;"/></g></svg>